<svg id="Layer_1" data-name="Layer 1" xmlns="http://www.w3.org/2000/svg" viewBox="0 0 447.92 512"><path d="M128,0A32.09,32.09,0,0,0,96,32V480a32.09,32.09,0,0,0,32,32H448a32.09,32.09,0,0,0,32-32V128L352,0Z" transform="translate(-32.08)" style="fill:#e2e5e7"/><path d="M384,128h96L352,0V96A32.09,32.09,0,0,0,384,128Z" transform="translate(-32.08)" style="fill:#b0b7bd"/><polygon points="447.92 224 351.92 128 447.92 128 447.92 224" style="fill:#cad1d8"/><path d="M416.08,416a16,16,0,0,1-16,16h-352a16,16,0,0,1-16-16V256a16,16,0,0,1,16-16h352a16,16,0,0,1,16,16Z" transform="translate(-32.08)" style="fill:#576d7e"/><path d="M400,432H96v16H400a16,16,0,0,0,16-16V416A16,16,0,0,1,400,432Z" transform="translate(-32.08)" style="fill:#cad1d8"/><path d="M129.4,301.8v41.25a78.41,78.41,0,0,1-.45,9.13,29.25,29.25,0,0,1-2.07,7.63A20.55,20.55,0,0,1,118,369.93a29.21,29.21,0,0,1-15,3.63A31.24,31.24,0,0,1,89.63,371,19.62,19.62,0,0,1,81,362.87a29.15,29.15,0,0,1-2.79-6.93,28.08,28.08,0,0,1-1.08-7.46,7.06,7.06,0,0,1,7.47-7.74,6,6,0,0,1,4.78,1.83,12.81,12.81,0,0,1,2.47,5.69,52.28,52.28,0,0,0,1.83,6.61,9.87,9.87,0,0,0,3.06,4.24,9.38,9.38,0,0,0,6.12,1.77q10.59,0,10.58-15.52V301.8q0-4.83,2.12-7.25a7.31,7.31,0,0,1,5.78-2.42,7.52,7.52,0,0,1,5.88,2.42Q129.41,297,129.4,301.8Z" transform="translate(-32.08)" style="fill:#fff"/><path d="M177.26,341.55H162.65v22.29c0,3.19-.75,5.6-2.25,7.25a8,8,0,0,1-11.5,0q-2.21-2.44-2.2-7.17v-60.7c0-3.51.81-6,2.42-7.52s4.17-2.25,7.68-2.25h20.46q9.08,0,14,1.39a21,21,0,0,1,8.35,4.46,20.09,20.09,0,0,1,5.34,7.63,26.8,26.8,0,0,1,1.83,10.15q0,12-7.41,18.23T177.26,341.55Zm-3.87-36.09H162.65v24.06h10.74a32.36,32.36,0,0,0,9.43-1.18,11,11,0,0,0,5.77-3.87,11.52,11.52,0,0,0,2-7,11.92,11.92,0,0,0-3.06-8.48Q184.08,305.46,173.39,305.46Z" transform="translate(-32.08)" style="fill:#fff"/><path d="M272,305.78H236v19.33h33.09q3.64,0,5.45,1.64a5.58,5.58,0,0,1,1.8,4.33,5.76,5.76,0,0,1-1.77,4.37c-1.19,1.13-3,1.69-5.48,1.69H236v22.4h37.17a8.12,8.12,0,0,1,5.67,1.75,6,6,0,0,1,1.9,4.64,5.85,5.85,0,0,1-1.9,4.54,8.12,8.12,0,0,1-5.67,1.75H229.84q-5.21,0-7.49-2.31t-2.28-7.47V303.25a13.27,13.27,0,0,1,1-5.61,6.34,6.34,0,0,1,3.2-3.17,13.45,13.45,0,0,1,5.55-1H272q3.82,0,5.67,1.69a6.29,6.29,0,0,1,0,8.91Q275.77,305.77,272,305.78Z" transform="translate(-32.08)" style="fill:#fff"/><path d="M365.36,340.21V355.3a16,16,0,0,1-.59,4.81,7.67,7.67,0,0,1-2.18,3.25,21,21,0,0,1-4,2.79,63.85,63.85,0,0,1-13.75,5.64,55.59,55.59,0,0,1-14.4,1.77,46.94,46.94,0,0,1-16.54-2.79,34.82,34.82,0,0,1-12.73-8.11A35.82,35.82,0,0,1,293,349.77a48.2,48.2,0,0,1-2.82-16.92A49.28,49.28,0,0,1,293,316a34.5,34.5,0,0,1,8.05-13A35.45,35.45,0,0,1,314,295a49.84,49.84,0,0,1,17.29-2.82,42.73,42.73,0,0,1,14.07,2.13,30.76,30.76,0,0,1,9.94,5.34,23.9,23.9,0,0,1,5.75,6.82,13.84,13.84,0,0,1,1.93,6.39,6.8,6.8,0,0,1-2.23,5.13,7.44,7.44,0,0,1-5.34,2.12,7.18,7.18,0,0,1-3.31-.8,7.48,7.48,0,0,1-2.65-2.26,63.92,63.92,0,0,0-5-7,16.19,16.19,0,0,0-5.5-4,21,21,0,0,0-8.84-1.62,24.39,24.39,0,0,0-9.88,1.91,20.49,20.49,0,0,0-7.44,5.53,24.93,24.93,0,0,0-4.73,8.89,39.21,39.21,0,0,0-1.64,11.66q0,13.86,6.37,21.32t17.75,7.47a36.39,36.39,0,0,0,10.39-1.45,53,53,0,0,0,9.86-4.14V342.84H338.39a13.62,13.62,0,0,1-6.74-1.34,4.88,4.88,0,0,1-2.28-4.57,5.62,5.62,0,0,1,1.91-4.35,7.43,7.43,0,0,1,5.18-1.72h18.1a23.29,23.29,0,0,1,5.64.59,6.35,6.35,0,0,1,3.73,2.63C364.88,335.44,365.36,337.49,365.36,340.21Z" transform="translate(-32.08)" style="fill:#fff"/></svg>