<svg id="Layer_1" data-name="Layer 1" xmlns="http://www.w3.org/2000/svg" viewBox="0 0 448.1 512"><path d="M128,0A32.09,32.09,0,0,0,96,32V480a32.09,32.09,0,0,0,32,32H448a32.09,32.09,0,0,0,32-32V128L352,0Z" transform="translate(-31.9)" style="fill:#e2e5e7"/><path d="M384,128h96L352,0V96A32.09,32.09,0,0,0,384,128Z" transform="translate(-31.9)" style="fill:#b0b7bd"/><polygon points="448.1 224 352.1 128 448.1 128 448.1 224" style="fill:#cad1d8"/><path d="M415.9,416.15a16,16,0,0,1-16,16H47.9a16,16,0,0,1-16-16v-160a16,16,0,0,1,16-16h352a16,16,0,0,1,16,16Z" transform="translate(-31.9)" style="fill:#84bd5a"/><path d="M400,432H96v16H400a16,16,0,0,0,16-16V416A16,16,0,0,1,400,432Z" transform="translate(-31.9)" style="fill:#cad1d8"/><path d="M95.34,356.76,113,331,98.13,308.15A45.89,45.89,0,0,1,95,302.43a11.37,11.37,0,0,1-1-4.59,5.34,5.34,0,0,1,2-4,7.06,7.06,0,0,1,4.91-1.8,6.8,6.8,0,0,1,5.19,2,50,50,0,0,1,5.13,7.27L123,320.34l12.62-19.12,2.66-4.13a22,22,0,0,1,2.12-2.85,6.57,6.57,0,0,1,5.21-2.25,6.83,6.83,0,0,1,4.92,1.8,5.66,5.66,0,0,1,1.91,4.26q0,3.6-4.14,9.78L132.78,331l16.7,25.73a43,43,0,0,1,3.28,5.61,10.2,10.2,0,0,1,1,4.22,6.78,6.78,0,0,1-.91,3.44,6.6,6.6,0,0,1-2.58,2.47,7.69,7.69,0,0,1-3.76.91,7.24,7.24,0,0,1-3.82-.94,8.09,8.09,0,0,1-2.52-2.34c-.64-.93-1.84-2.73-3.6-5.42L122.73,342.9,108,365.35c-1.15,1.8-2,3-2.45,3.76a13.83,13.83,0,0,1-1.74,2.1,7.48,7.48,0,0,1-2.42,1.61,8.43,8.43,0,0,1-3.28.59,6.78,6.78,0,0,1-4.8-1.77,6.7,6.7,0,0,1-1.91-5.16Q91.42,362.51,95.34,356.76Z" transform="translate(-31.9)" style="fill:#fff"/><path d="M180.31,301.65V359h32.34a8.54,8.54,0,0,1,5.93,1.88,6.13,6.13,0,0,1,2.07,4.73,6,6,0,0,1-2,4.7,8.76,8.76,0,0,1-6,1.8H174.14q-5.22,0-7.5-2.31t-2.28-7.47V301.65c0-3.22.72-5.64,2.18-7.25a7.32,7.32,0,0,1,5.72-2.41,7.56,7.56,0,0,1,5.82,2.39C179.57,296,180.31,298.4,180.31,301.65Z" transform="translate(-31.9)" style="fill:#fff"/><path d="M286.77,348.44a23.13,23.13,0,0,1-3.68,12.83,24.51,24.51,0,0,1-10.77,8.92,40.33,40.33,0,0,1-16.81,3.22q-11.65,0-19.23-4.4a25.78,25.78,0,0,1-8.73-8.46,19.21,19.21,0,0,1-3.36-10.29,7,7,0,0,1,7.15-7,6.05,6.05,0,0,1,4.27,1.61,12.7,12.7,0,0,1,3,4.78,31.52,31.52,0,0,0,3.25,6.28,13.15,13.15,0,0,0,4.91,4.16,18.07,18.07,0,0,0,8.33,1.64q7.08,0,11.52-3.3a10,10,0,0,0,4.43-8.25,8.73,8.73,0,0,0-2.39-6.36,15.36,15.36,0,0,0-6.18-3.73,103.93,103.93,0,0,0-10.12-2.74,74.93,74.93,0,0,1-14.21-4.65,23,23,0,0,1-9.08-7.25A18.87,18.87,0,0,1,225.7,314a19.62,19.62,0,0,1,3.54-11.55,22.35,22.35,0,0,1,10.26-7.76A42,42,0,0,1,255.29,292a38.71,38.71,0,0,1,12.54,1.8,26.49,26.49,0,0,1,8.79,4.77,20.23,20.23,0,0,1,5.1,6.26,14.52,14.52,0,0,1,1.61,6.39,7.56,7.56,0,0,1-2,5.13,6.42,6.42,0,0,1-5,2.29,5.79,5.79,0,0,1-4.16-1.37,18.55,18.55,0,0,1-3.09-4.49,20.31,20.31,0,0,0-5.15-6.95q-3-2.51-9.67-2.5-6.18,0-10,2.71c-2.53,1.81-3.79,4-3.79,6.53a6.62,6.62,0,0,0,1.29,4.08,10.77,10.77,0,0,0,3.54,2.95,24,24,0,0,0,4.57,1.94q2.31.69,7.62,2A121.2,121.2,0,0,1,269.55,327a37,37,0,0,1,9.19,4.57,18.89,18.89,0,0,1,5.91,6.8A21.77,21.77,0,0,1,286.77,348.44Z" transform="translate(-31.9)" style="fill:#fff"/><path d="M297.4,356.76,315,331l-14.83-22.88a45.89,45.89,0,0,1-3.14-5.72,11.37,11.37,0,0,1-1.05-4.59,5.34,5.34,0,0,1,2-4,7.06,7.06,0,0,1,4.91-1.8,6.8,6.8,0,0,1,5.19,2,50,50,0,0,1,5.13,7.27l11.81,19.12,12.62-19.12,2.66-4.13a22,22,0,0,1,2.12-2.85,6.57,6.57,0,0,1,5.21-2.25,6.83,6.83,0,0,1,4.92,1.8,5.66,5.66,0,0,1,1.91,4.26q0,3.6-4.14,9.78L334.84,331l16.7,25.73a43,43,0,0,1,3.28,5.61,10.2,10.2,0,0,1,1,4.22,6.78,6.78,0,0,1-.91,3.44,6.6,6.6,0,0,1-2.58,2.47,7.69,7.69,0,0,1-3.76.91,7.24,7.24,0,0,1-3.82-.94,8.09,8.09,0,0,1-2.52-2.34c-.64-.93-1.84-2.73-3.6-5.42L324.79,342.9l-14.71,22.45c-1.15,1.8-2,3-2.45,3.76a13.83,13.83,0,0,1-1.74,2.1,7.48,7.48,0,0,1-2.42,1.61,8.43,8.43,0,0,1-3.28.59,6.78,6.78,0,0,1-4.8-1.77,6.7,6.7,0,0,1-1.91-5.16Q293.48,362.51,297.4,356.76Z" transform="translate(-31.9)" style="fill:#fff"/></svg>