<svg id="Layer_1" data-name="Layer 1" xmlns="http://www.w3.org/2000/svg" viewBox="0 0 447.92 512"><path d="M128,0A32.09,32.09,0,0,0,96,32V480a32.09,32.09,0,0,0,32,32H448a32.09,32.09,0,0,0,32-32V128L352,0Z" transform="translate(-32.08)" style="fill:#e2e5e7"/><path d="M384,128h96L352,0V96A32.09,32.09,0,0,0,384,128Z" transform="translate(-32.08)" style="fill:#b0b7bd"/><polygon points="447.92 224 351.92 128 447.92 128 447.92 224" style="fill:#cad1d8"/><path d="M416.08,416a16,16,0,0,1-16,16h-352a16,16,0,0,1-16-16V256a16,16,0,0,1,16-16h352a16,16,0,0,1,16,16Z" transform="translate(-32.08)" style="fill:#50bee8"/><path d="M400,432H96v16H400a16,16,0,0,0,16-16V416A16,16,0,0,1,400,432Z" transform="translate(-32.08)" style="fill:#cad1d8"/><path d="M211.94,355.64a28,28,0,0,1-4.45,15.53,29.48,29.48,0,0,1-13,10.77q-8.57,3.9-20.33,3.9-14.08,0-23.25-5.32a31.1,31.1,0,0,1-10.55-10.23,23.29,23.29,0,0,1-4.06-12.44,8.44,8.44,0,0,1,8.64-8.51,7.32,7.32,0,0,1,5.16,2,15.39,15.39,0,0,1,3.61,5.78,38.24,38.24,0,0,0,3.93,7.6,15.76,15.76,0,0,0,5.94,5,22,22,0,0,0,10.06,2q8.58,0,13.93-4t5.36-10A10.51,10.51,0,0,0,190,350a18.63,18.63,0,0,0-7.47-4.52Q178,344,170.31,342.2a89.44,89.44,0,0,1-17.18-5.62,27.75,27.75,0,0,1-11-8.76q-4.07-5.56-4.06-13.8a23.7,23.7,0,0,1,4.29-14,27,27,0,0,1,12.4-9.38,50.72,50.72,0,0,1,19.09-3.28,47.27,47.27,0,0,1,15.17,2.18,32,32,0,0,1,10.62,5.78,24,24,0,0,1,6.16,7.56,17.44,17.44,0,0,1,1.95,7.73,9.15,9.15,0,0,1-2.43,6.2,7.78,7.78,0,0,1-6.07,2.76,7,7,0,0,1-5-1.65,22.68,22.68,0,0,1-3.73-5.43,24.6,24.6,0,0,0-6.24-8.41q-3.63-3-11.69-3-7.46,0-12,3.28T156,312.26a8,8,0,0,0,1.56,4.94,13.31,13.31,0,0,0,4.28,3.57,28.55,28.55,0,0,0,5.52,2.34c1.87.56,4.94,1.38,9.23,2.47a146,146,0,0,1,14.58,4.15,44.56,44.56,0,0,1,11.1,5.52,22.79,22.79,0,0,1,7.14,8.22A26.29,26.29,0,0,1,211.94,355.64Z" transform="translate(-32.08)" style="fill:#fff"/><path d="M247.72,299.08v27.27h41.63V299.08q0-5.85,2.63-8.77a8.85,8.85,0,0,1,6.92-2.92,9.15,9.15,0,0,1,7,2.89q2.7,2.89,2.7,8.8v75q0,5.91-2.73,8.83a9.16,9.16,0,0,1-7,2.92,8.79,8.79,0,0,1-6.95-2.95c-1.74-2-2.6-4.91-2.6-8.8v-32H247.72v32q0,5.91-2.73,8.83a9.13,9.13,0,0,1-7,2.92,8.79,8.79,0,0,1-6.95-2.95c-1.73-2-2.6-4.91-2.6-8.8v-75q0-5.85,2.57-8.77a8.81,8.81,0,0,1,7-2.92,9.19,9.19,0,0,1,7.05,2.89Q247.71,293.17,247.72,299.08Z" transform="translate(-32.08)" style="fill:#fff"/></svg>