<svg id="Layer_1" data-name="Layer 1" xmlns="http://www.w3.org/2000/svg" viewBox="0 0 448 512"><path d="M128,0A32.09,32.09,0,0,0,96,32V480a32.09,32.09,0,0,0,32,32H448a32.09,32.09,0,0,0,32-32V128L352,0Z" transform="translate(-32)" style="fill:#e2e5e7"/><path d="M384,128h96L352,0V96A32.09,32.09,0,0,0,384,128Z" transform="translate(-32)" style="fill:#b0b7bd"/><polygon points="448 224 352 128 448 128 448 224" style="fill:#cad1d8"/><path d="M416,416a16,16,0,0,1-16,16H48a16,16,0,0,1-16-16V256a16,16,0,0,1,16-16H400a16,16,0,0,1,16,16Z" transform="translate(-32)" style="fill:#84bd5a"/><path d="M400,432H96v16H400a16,16,0,0,0,16-16V416A16,16,0,0,1,400,432Z" transform="translate(-32)" style="fill:#cad1d8"/><path d="M160.53,373.44,156,361.49H117.28l-4.54,12.21q-2.67,7.14-4.55,9.64c-1.26,1.67-3.31,2.5-6.17,2.5a9.07,9.07,0,0,1-6.43-2.66,8.17,8.17,0,0,1-2.79-6,13.61,13.61,0,0,1,.65-4c.43-1.38,1.15-3.31,2.14-5.78L120,305.51q1-2.67,2.5-6.4a32.45,32.45,0,0,1,3.11-6.2,12.74,12.74,0,0,1,4.35-4,15.39,15.39,0,0,1,13.38,0,12.77,12.77,0,0,1,4.35,3.92,27.69,27.69,0,0,1,2.8,5.17c.75,1.84,1.72,4.3,2.89,7.37l24.87,61.43q2.93,7,2.92,10.2a8.43,8.43,0,0,1-2.76,6.07,9.08,9.08,0,0,1-6.66,2.76,8.63,8.63,0,0,1-3.89-.81,8.05,8.05,0,0,1-2.73-2.21,20,20,0,0,1-2.37-4.28Q161.45,375.65,160.53,373.44ZM122.35,347h28.44l-14.35-39.29Z" transform="translate(-32)" style="fill:#fff"/><path d="M232.23,347.14H214.57v26.95q0,5.78-2.73,8.76a9.62,9.62,0,0,1-13.9,0c-1.78-2-2.66-4.86-2.66-8.67V300.83q0-6.36,2.92-9.09t9.29-2.73h24.74q11,0,16.88,1.69a25.19,25.19,0,0,1,10.1,5.39,24.27,24.27,0,0,1,6.46,9.22,32.34,32.34,0,0,1,2.21,12.28q0,14.55-9,22.05T232.23,347.14Zm-4.68-43.64h-13v29.09h13a38.87,38.87,0,0,0,11.4-1.43,13.29,13.29,0,0,0,7-4.67,14,14,0,0,0,2.4-8.51,14.41,14.41,0,0,0-3.7-10.26Q240.48,303.49,227.55,303.5Z" transform="translate(-32)" style="fill:#fff"/><path d="M303.41,299.08v33.38L341.27,293a33.92,33.92,0,0,1,4.64-4.23,8.63,8.63,0,0,1,5.1-1.36,9.33,9.33,0,0,1,6.72,2.44,7.86,7.86,0,0,1,2.56,5.94q0,4.22-4.35,8.38l-23.44,22.2,27,38.71a48.46,48.46,0,0,1,4.28,7.05,13.71,13.71,0,0,1,1.43,5.87,7.3,7.3,0,0,1-2.5,5.52,9.54,9.54,0,0,1-6.79,2.34,11.44,11.44,0,0,1-6.56-1.72,14.85,14.85,0,0,1-4.28-4.58q-1.75-2.85-3.12-5.19l-22.79-35.07-15.78,15.13v19.68c0,4-.91,6.94-2.73,8.86a9.21,9.21,0,0,1-7,2.89,9.41,9.41,0,0,1-4.74-1.3,9.06,9.06,0,0,1-3.5-3.5,11.4,11.4,0,0,1-1.11-4.23q-.19-2.4-.19-6.94V299.08q0-5.85,2.56-8.77a8.81,8.81,0,0,1,7-2.92,9.19,9.19,0,0,1,7,2.89Q303.41,293.17,303.41,299.08Z" transform="translate(-32)" style="fill:#fff"/></svg>